<svg xmlns="http://www.w3.org/2000/svg" width="106" height="60" fill="#AFB1B8"><path d="M25.402 21.83H25.4c-2.262 0-4.096 1.788-4.096 3.992v.003c0 2.204 1.834 3.992 4.096 3.992h.003c2.262 0 4.096-1.788 4.096-3.992v-.003c0-2.204-1.834-3.991-4.096-3.991ZM55.637 20.555c-.007-3.063-1.258-5.998-3.48-8.163-2.22-2.165-5.232-3.385-8.374-3.392-3.143.006-6.156 1.225-8.379 3.39-2.223 2.166-3.474 5.101-3.48 8.165V37.44s23.71-2.573 23.713-16.883v-.002ZM13 42.982a7.96 7.96 0 0 0 2.422 5.68 8.384 8.384 0 0 0 5.827 2.362 8.384 8.384 0 0 0 5.826-2.361 7.96 7.96 0 0 0 2.424-5.678v-11.75S13 33.029 13 42.983Zm8.25 2.105a2.2 2.2 0 0 1-1.2-.354 2.117 2.117 0 0 1-.797-.945 2.056 2.056 0 0 1-.122-1.216 2.09 2.09 0 0 1 .59-1.078 2.179 2.179 0 0 1 1.107-.576c.419-.082.853-.04 1.248.12.395.159.732.429.97.775a2.068 2.068 0 0 1 .201 1.977c-.108.257-.267.49-.467.686-.201.196-.44.352-.702.458a2.21 2.21 0 0 1-.829.161v-.008ZM38.09 43.781h-1.688v1.743h-.88V41.26H38.3v.712h-1.898v1.101h1.687v.71Zm4.224-.293c0 .42-.074.788-.223 1.105-.148.316-.361.56-.638.732a1.755 1.755 0 0 1-.95.258c-.353 0-.669-.085-.946-.255a1.695 1.695 0 0 1-.644-.726 2.511 2.511 0 0 1-.232-1.09V43.3c0-.42.075-.79.226-1.108.152-.32.366-.565.641-.735.278-.172.594-.258.95-.258.355 0 .67.086.946.258.277.17.491.415.641.735.153.319.229.687.229 1.105v.19Zm-.89-.193c0-.447-.08-.787-.24-1.02a.783.783 0 0 0-.686-.348.782.782 0 0 0-.683.346c-.16.228-.241.564-.243 1.007v.208c0 .436.08.774.24 1.014.16.24.39.36.691.36a.775.775 0 0 0 .68-.345c.158-.233.238-.57.24-1.014v-.208Zm3.74 1.11a.447.447 0 0 0-.175-.38c-.117-.09-.328-.184-.633-.282a4.565 4.565 0 0 1-.724-.293c-.484-.262-.726-.614-.726-1.057 0-.23.064-.436.193-.616.131-.181.318-.323.56-.425.244-.101.517-.152.82-.152.305 0 .576.056.815.167.238.11.422.265.553.466.133.201.2.43.2.686h-.88c0-.196-.061-.347-.184-.454-.123-.11-.296-.165-.519-.165-.215 0-.381.046-.5.138a.426.426 0 0 0-.18.358c0 .138.07.254.209.348.14.094.346.182.618.264.5.15.864.337 1.093.56.228.222.342.5.342.831 0 .37-.14.66-.419.87-.279.21-.655.314-1.128.314-.328 0-.626-.06-.896-.179a1.438 1.438 0 0 1-.618-.495 1.27 1.27 0 0 1-.211-.726h.882c0 .47.281.706.843.706.21 0 .373-.042.49-.126a.418.418 0 0 0 .176-.358Zm4.691-2.434h-1.307v3.553h-.879v-3.553H46.38v-.712h3.475v.712Zm3.07 1.705h-1.687v1.142h1.98v.706h-2.86V41.26h2.854v.712h-1.974v1.016h1.687v.689Zm2.388.287h-.7v1.561h-.88V41.26h1.586c.504 0 .892.112 1.166.337.273.224.41.542.41.952 0 .29-.064.534-.19.73a1.282 1.282 0 0 1-.572.462l.923 1.743v.041h-.943l-.8-1.561Zm-.7-.712h.709c.22 0 .391-.056.512-.167a.607.607 0 0 0 .182-.466c0-.201-.057-.36-.173-.474-.113-.116-.288-.173-.524-.173h-.706v1.28Zm5.326.77v1.503h-.879V41.26h1.664c.32 0 .602.058.844.176.244.117.431.284.562.5.131.215.197.46.197.736 0 .418-.144.748-.431.99-.285.24-.68.36-1.187.36h-.77Zm0-.711h.785c.233 0 .41-.055.53-.165.123-.109.185-.265.185-.468a.704.704 0 0 0-.185-.507c-.123-.129-.293-.195-.51-.2h-.805v1.34Zm5.56.366h-1.687v1.142h1.98v.706h-2.859V41.26h2.854v.712h-1.975v1.016H65.5v.689Zm4.079-1.705H68.27v3.553h-.879v-3.553h-1.289v-.712h3.475v.712Zm3.07 1.705H70.96v1.142h1.98v.706h-2.858V41.26h2.853v.712H70.96v1.016h1.688v.689Zm2.388.287h-.7v1.561h-.88V41.26h1.585c.504 0 .893.112 1.166.337.274.224.41.542.41.952 0 .29-.063.534-.19.73a1.282 1.282 0 0 1-.571.462l.923 1.743v.041h-.944l-.8-1.561Zm-.7-.712h.708c.221 0 .392-.056.513-.167a.607.607 0 0 0 .182-.466c0-.201-.058-.36-.173-.474-.113-.116-.288-.173-.525-.173h-.706v1.28Zm5.165 1.154a.447.447 0 0 0-.176-.38c-.118-.09-.328-.184-.633-.282a4.56 4.56 0 0 1-.724-.293c-.484-.262-.726-.614-.726-1.057 0-.23.064-.436.193-.616.13-.181.317-.323.56-.425.244-.101.517-.152.82-.152.305 0 .576.056.814.167.239.11.423.265.554.466.133.201.2.43.2.686h-.88c0-.196-.061-.347-.184-.454-.123-.11-.296-.165-.519-.165-.215 0-.382.046-.5.138a.426.426 0 0 0-.18.358c0 .138.07.254.209.348.14.094.346.182.618.264.5.15.864.337 1.093.56.228.222.342.5.342.831 0 .37-.14.66-.419.87-.279.21-.655.314-1.128.314-.328 0-.626-.06-.896-.179a1.438 1.438 0 0 1-.618-.495 1.27 1.27 0 0 1-.211-.726h.882c0 .47.28.706.843.706.21 0 .373-.042.49-.126a.418.418 0 0 0 .175-.358Z"/></svg>